<?xml version="1.0" standalone="no"?>
<!DOCTYPE svg PUBLIC "-//W3C//DTD SVG 20010904//EN"
 "http://www.w3.org/TR/2001/REC-SVG-20010904/DTD/svg10.dtd">
<svg version="1.0" xmlns="http://www.w3.org/2000/svg"
 width="32.000000pt" height="32.000000pt" viewBox="0 0 32.000000 32.000000"
 preserveAspectRatio="xMidYMid meet">
<g transform="translate(0.000000,32.000000) scale(0.100000,-0.100000)"
fill="#69f542" stroke="none">
<path d="M203 288 c-6 -7 -13 -21 -16 -30 -6 -16 -23 -22 -52 -19 -22 2 -43
-57 -49 -136 -8 -87 -2 -98 29 -63 10 11 23 20 29 20 18 0 75 56 86 85 6 17 6
33 -2 51 -9 20 -9 30 0 45 25 40 3 82 -25 47z m-79 -134 c9 -3 16 -12 16 -19
0 -7 8 -11 18 -9 9 2 24 0 31 -5 12 -8 11 -13 -10 -30 -13 -11 -32 -20 -41
-21 -9 0 -21 -7 -26 -16 -5 -9 -12 -13 -15 -8 -5 9 3 114 8 114 2 0 10 -3 19
-6z"/>
</g>
</svg>
